<?xml version="1.0" standalone="no"?>
<!DOCTYPE svg PUBLIC "-//W3C//DTD SVG 20010904//EN"
 "http://www.w3.org/TR/2001/REC-SVG-20010904/DTD/svg10.dtd">
<svg version="1.0" xmlns="http://www.w3.org/2000/svg"
 width="122.000000pt" height="122.000000pt" viewBox="0 0 122.000000 122.000000"
 preserveAspectRatio="xMidYMid meet">
<metadata>
Created by potrace 1.14, written by Peter Selinger 2001-2017
</metadata>
<g transform="translate(0.000000,122.000000) scale(0.100000,-0.100000)"
fill="#000000" stroke="none">
<path d="M605 1096 c0 -103 2 -126 15 -128 8 -2 58 -4 110 -3 l95 0 1 128 1
127 -111 0 -111 0 0 -124z"/>
<path d="M272 808 l3 -113 95 2 c52 0 102 2 110 2 12 1 15 17 13 88 -1 49 -2
98 -3 111 0 21 -3 22 -110 22 l-111 0 3 -112z"/>
<path d="M609 747 c-1 -7 -2 -100 -3 -207 -1 -173 -3 -199 -21 -234 -27 -54
-64 -78 -122 -81 -60 -3 -123 15 -175 51 -46 32 -33 38 -103 -50 -16 -21 -40
-50 -52 -64 -26 -31 -22 -38 47 -82 76 -49 154 -73 251 -76 189 -7 307 72 370
246 22 61 24 79 24 285 l0 220 -107 2 c-76 1 -108 -2 -109 -10z"/>
<path d="M869 173 c-38 -9 -51 -91 -19 -123 25 -25 52 -26 73 -2 44 50 6 138
-54 125z m42 -46 c7 -15 7 -31 0 -50 -13 -33 -26 -34 -46 -3 -12 18 -13 30 -6
50 13 32 38 34 52 3z"/>
<path d="M1094 168 c-4 -6 -7 -27 -6 -47 l2 -36 -20 33 c-11 18 -20 37 -20 42
0 6 -8 10 -19 10 -16 0 -18 -7 -16 -67 3 -82 3 -82 15 -63 5 8 7 32 5 53 -5
46 0 44 29 -14 34 -69 46 -62 46 25 0 76 -3 86 -16 64z"/>
<path d="M963 103 c3 -90 22 -93 24 -3 1 53 -2 70 -12 70 -10 0 -13 -17 -12
-67z"/>
</g>
</svg>
